<svg width="720" height="96" viewBox="0 0 720 96" fill="none" xmlns="http://www.w3.org/2000/svg">
<defs>
    <clipPath id="rounded-corners">
        <rect width="720" height="96" rx="12" ry="12"/>
    </clipPath>
</defs>
<g clip-path="url(#rounded-corners)">
    <path d="M0 80V64H16V48H32V32H16V16H0V0H32V16H48V32H64V48H48V64H32V80H0ZM96 96V80H176V96H96ZM208 80V16H224V0H256V16H272V80H256V48H224V80H208ZM224 32H256V16.64H224V32ZM320 80V64H304V0H320V64H352V80H320ZM352 64V0H368V64H352ZM416 80V16H400V0H448V16H432V80H416ZM480 80V0H496V32H528V0H544V80H528V48H496V80H480ZM576 80V0H624V16H592V32H624V48H592V64H624V80H576ZM656 80V0H704V16H720V64H704V80H656ZM672 64H703.36V16H672V64Z" fill="white"/>
</g>
</svg>
